<?xml version="1.0" encoding="utf-8"?>
<!-- Generator: Adobe Illustrator 25.1.0, SVG Export Plug-In . SVG Version: 6.00 Build 0)  -->
<svg version="1.1" id="Слой_1" xmlns="http://www.w3.org/2000/svg" xmlns:xlink="http://www.w3.org/1999/xlink" x="0px" y="0px"
	 viewBox="0 0 178.69 119.31" style="enable-background:new 0 0 178.69 119.31;" xml:space="preserve">
<style type="text/css">
	.st0{fill:#97989B;}
	.st1{fill:#ED2D35;}
</style>
<path class="st0" d="M82.08,21.9c-1.16-2.77-2.83-5.23-4.96-7.31c-2.12-2.07-4.65-3.69-7.5-4.83c-2.84-1.13-5.99-1.7-9.35-1.7
	c-3.4,0-6.58,0.58-9.44,1.74c-2.86,1.15-5.38,2.78-7.49,4.86c-2.11,2.07-3.78,4.53-4.96,7.31c-1.18,2.78-1.78,5.85-1.78,9.13
	c0,3.29,0.6,6.36,1.78,9.13c1.18,2.78,2.85,5.23,4.96,7.31c2.11,2.07,4.64,3.71,7.53,4.86c2.89,1.15,6.05,1.74,9.41,1.74
	c3.37,0,6.51-0.57,9.35-1.71c2.85-1.13,5.37-2.76,7.49-4.83c2.13-2.07,3.8-4.53,4.96-7.31c1.16-2.77,1.75-5.87,1.75-9.2
	C83.82,27.76,83.24,24.67,82.08,21.9z M76.61,31.09c0,2.35-0.42,4.55-1.24,6.55c-0.82,1.99-1.98,3.74-3.44,5.22
	c-1.45,1.47-3.19,2.63-5.18,3.45c-1.98,0.81-4.16,1.22-6.49,1.22c-2.37,0-4.57-0.41-6.55-1.22c-1.98-0.81-3.74-1.97-5.21-3.45
	c-1.48-1.48-2.64-3.23-3.46-5.22c-0.82-1.99-1.24-4.19-1.24-6.55c0-2.35,0.42-4.56,1.24-6.54c0.82-1.98,1.99-3.74,3.46-5.22
	c1.48-1.48,3.23-2.64,5.21-3.45c1.98-0.81,4.18-1.22,6.55-1.22c2.33,0,4.51,0.41,6.49,1.22c1.98,0.81,3.72,1.97,5.18,3.45
	c1.46,1.48,2.61,3.23,3.44,5.22C76.2,26.54,76.61,28.74,76.61,31.09z"/>
<g>
	<path class="st0" d="M23.84,7.73c3.94-0.15,7.55,1.04,10.95,2.89c1.6,0.87,2.53,2.3,1.81,4.15c-0.81,2.07-2.54,2.48-4.53,1.9
		c-2.06-0.6-4.05-1.62-6.15-1.92c-7.38-1.08-13.64,2.18-17.05,8.61c-3.25,6.13-2.52,12.96,1.95,18.1
		c4.87,5.61,11.55,7.43,18.45,5.02c0.78-0.27,1.54-0.64,2.27-1.02c2.23-1.16,3.95-0.47,4.94,1.66c1,2.15-0.49,3.38-2.11,4.43
		c-7.23,4.65-18.29,3.58-25.66-2.49c-7.66-6.31-10.65-16.61-7.43-25.6C4.77,13.69,13.5,7.61,23.84,7.73z"/>
	<path class="st0" d="M119.96,31.43c-0.1,11.92-9.46,21.98-21.35,22.96c-2.61,0.21-4.99-0.47-5.23-3.31
		c-0.22-2.7,2.1-3.18,4.42-3.61c9.89-1.81,15.13-7.43,15.28-16.1c0.21-11.67-10.73-19.65-21.87-15.94
		c-0.79,0.26-1.57,0.55-2.32,0.89c-2.08,0.93-4.03,0.9-5.14-1.31c-1.35-2.69,0.63-4.01,2.66-4.95c8.19-3.79,16.24-3.41,23.63,1.8
		C116.7,16.55,120.3,23.07,119.96,31.43z"/>
	<path class="st0" d="M158.99,26.72c0,3.82,0.03,7.64-0.01,11.47c-0.08,9.41-5.86,15.69-15.24,16.25
		c-4.47,0.27-8.98,0.08-13.46,0.05c-2.38-0.02-4.47-0.78-4.52-3.53c-0.05-2.9,2.13-3.36,4.51-3.34c3.99,0.03,7.98,0.05,11.97-0.01
		c6.76-0.11,9.8-3.05,9.86-9.69c0.07-8.14,0.03-16.29,0.01-24.43c0-2.62,0.17-5.45,3.47-5.61c3.63-0.17,3.4,2.87,3.41,5.38
		C159,17.74,158.99,22.23,158.99,26.72z"/>
	<path class="st0" d="M131.6,20.25c0,1.83-0.02,3.66,0,5.49c0.1,6.65,3.09,9.75,9.68,9.96c2.49,0.08,5.53-0.4,5.61,3.22
		c0.08,3.88-3.09,3.66-5.78,3.67c-9.8,0.04-16.27-6.34-16.37-16.15c-0.05-4.82-0.01-9.65-0.01-14.47c0-2.22,0.64-4.12,3.23-4.13
		c2.42,0,3.53,1.67,3.6,3.94c0.09,2.82,0.02,5.65,0.02,8.48C131.59,20.25,131.6,20.25,131.6,20.25z"/>
	<path class="st0" d="M81.85,57.21c0.01-1.99-0.01-3.97,0.01-5.96c0.03-1.88,0.88-3.26,2.82-3.49c2.17-0.27,3.7,1.03,3.83,3.02
		c0.27,4.12,0.25,8.28,0.06,12.4c-0.09,1.99-1.44,3.48-3.61,3.29c-2.1-0.19-3.12-1.67-3.12-3.79
		C81.85,60.85,81.85,59.03,81.85,57.21z"/>
	<path class="st1" d="M62.56,54.78c-0.99,15.58-3.22,30.05-1.27,46.72c7.6-8.5,13.65-16.69,12.88-28.11
		c-0.14-2.14-0.48-4.33,0.37-6.41c0.46-1.12,1.2-2.14,2.54-2.01c1.31,0.13,2.12,1.2,2.11,2.42c-0.02,2.14-0.12,4.33-0.57,6.42
		c-1.26,5.89,0.45,11.23,3.15,16.23c2.35,4.35,5.37,4.26,7.66-0.06c1.72-3.24,2.72-6.58,2.06-10.51
		c-1.04-6.13,4.89-14.82,10.88-16.77c5.03-1.63,9.64,0.38,12.63,5.36c2.46,4.09,2.79,8.66,3.08,13.99c1.96-2.66,1.67-4.99,1.56-7.24
		c-0.38-7.48-0.89-14.95-1.23-22.43c-0.09-1.85-1.23-4.97,1.18-5.16c2.93-0.23,2.07,3.16,2.29,5.07c0.64,5.74,1.04,11.18,1.67,18.42
		c1.28-2.66,1.95-3.83,2.72-5.26c2.29-4.28,5.64-7.09,10.74-6.7c5.03,0.38,8.26,3.46,9.86,8.01c2.39,6.79,1.07,13.11-3.26,18.81
		c-3.99,5.24-9.44,8.34-15.61,10.2c-2.51,0.76-3.4,2.02-3.23,4.62c0.35,5.14,0.41,10.3,0.61,15.46c0.05,1.34,0.31,3.17-1.22,3.39
		c-2.06,0.3-2.05-1.69-2.15-3.17c-0.34-4.81-0.78-9.63-0.92-14.45c-0.08-2.81-0.88-3.38-3.57-2.4c-4.68,1.71-9.51,3.01-13.94,5.37
		c-1.33,0.71-2.59,1.58-4.75,0.63c5.29-4.75,11.57-7.03,17.87-9c3.7-1.16,4.85-2.83,3.3-6.4c-10.22,8.55-19.12,9.23-26.37-1.02
		c-2.13,3.21-3.43,7.97-8.33,7.09c-5.77-1.03-6.95-6.55-9.38-11.84c-2.79,6.3-5.82,11.86-9.91,16.73c-0.86,1.02-1.7,2.05-2.61,3.02
		c-1.16,1.23-2.45,2.49-4.31,1.78c-1.76-0.67-1.49-2.39-1.53-3.87c-0.03-1.16-0.01-2.33-0.02-3.49c0.36-4.76-0.28-9.39-0.72-14.23
		c-0.17,5.17,0.14,9.02-0.79,14.1c-1.94,7.58-6.51,12.75-14.25,14.39c-7.54,1.6-13.65-1.46-18.69-6.98
		c-0.88-0.96-2.29-1.91-1.73-3.32c0.53-1.34,2.15-1.3,3.48-1.53c8.67-1.49,16.7-4.28,23.04-10.82c2.28-2.35,2.51-3.6-1.14-4.45
		c-5.56-1.29-11.2-1.45-16.85-1.61c-4.66-0.14-9.34-0.15-13.8-1.71c-4.6-1.6-6.08-4.53-3.37-8.39c7.6-10.8,18.19-17.36,31.15-19.69
		c4.58-0.82,7.12,2.44,6.39,7.09c-0.58,3.68-2.23,6.94-4.14,10.08c-0.51,0.83-1.21,1.8-2.35,0.97c-1.06-0.77-0.6-1.74,0.04-2.6
		c1.6-2.14,3.08-4.38,3.74-6.99c0.94-3.76-0.87-6.12-4.68-5.46c-11.37,1.96-20.2,8.1-26.94,17.33c-2.09,2.86-0.46,4.22,2.2,4.98
		c5.16,1.47,10.48,1.76,15.8,1.94c5.48,0.19,11.03-0.07,16.23,2.06c2.18,0.89,2.87-0.32,3.86-1.82c2.8-4.26,3.35-8.91,2.88-13.84
		c-0.44-4.63-0.7-9.28-1.04-13.92c-0.16-2.38-0.32-4.76-0.48-7.14c0-3.17-1.32-6.34-0.32-9.7c3.6,2.46,3.84,2.89,6.54,11.59
		C62.39,50.91,62.46,52.39,62.56,54.78z M125.02,88.04c-0.19,4.8-0.17,4.86,1.5,4.86c8.96-0.03,19.35-12.53,18.14-21.83
		c-0.65-5.01-3.9-8.95-7.84-9.08c-4.8-0.15-7.07,3.09-8.53,7.08C125.98,75.39,125.58,82.05,125.02,88.04z M114.67,80.62
		c0.09-4.23-0.7-7.28-2.1-10.14c-1.47-3.01-3.63-5.22-7.33-4.98c-3.77,0.25-6.09,2.53-7.3,5.88c-1.98,5.5-0.38,10.48,2.81,15.03
		c2.05,2.93,4.87,5.86,8.51,5.13c3.58-0.72,4.09-4.81,4.95-7.99C114.55,82.28,114.62,80.94,114.67,80.62z M26.17,103.81
		c7.19,6.72,14.57,7.97,20.51,3.81c5.65-3.95,8.32-11.96,5.76-18.02C45.38,97.18,36.41,101.15,26.17,103.81z"/>
</g>
<path class="st0" d="M171.82,1c3.24,0,5.87,2.63,5.87,5.87s-2.63,5.87-5.87,5.87s-5.87-2.63-5.87-5.87S168.58,1,171.82,1 M171.82,0
	c-3.8,0-6.87,3.08-6.87,6.87s3.08,6.87,6.87,6.87s6.87-3.08,6.87-6.87S175.62,0,171.82,0L171.82,0z"/>
<path class="st0" d="M173.12,7.61c0.06-0.02,0.13-0.03,0.18-0.05c0.39-0.17,0.68-0.42,0.89-0.75s0.31-0.71,0.31-1.16
	s-0.1-0.84-0.31-1.17c-0.21-0.33-0.51-0.58-0.89-0.75c-0.39-0.17-0.85-0.26-1.4-0.26h-2.44v6.25h0.89v-1.9h1.54
	c0.14,0,0.26-0.02,0.39-0.03l1.35,1.93h0.97L173.12,7.61z M171.87,7.06h-1.52V4.24h1.52c0.57,0,1,0.12,1.3,0.37
	c0.29,0.24,0.44,0.59,0.44,1.04c0,0.45-0.15,0.79-0.44,1.04C172.87,6.93,172.44,7.06,171.87,7.06z"/>
</svg>
